<?xml version="1.0" standalone="no"?>
<!DOCTYPE svg PUBLIC "-//W3C//DTD SVG 20010904//EN"
 "http://www.w3.org/TR/2001/REC-SVG-20010904/DTD/svg10.dtd">
<svg version="1.0" xmlns="http://www.w3.org/2000/svg"
 width="279.000000pt" height="279.000000pt" viewBox="0 0 279.000000 279.000000"
 preserveAspectRatio="xMidYMid meet">
<metadata>
Created by potrace 1.14, written by Peter Selinger 2001-2017
</metadata>
<g transform="translate(0.000000,279.000000) scale(0.100000,-0.100000)"
fill="#000000" stroke="none">
<path d="M176 2221 c-34 -37 -48 -155 -27 -228 9 -31 9 -32 -27 -35 l-37 -3
-3 -92 c-2 -73 1 -99 15 -125 13 -26 17 -52 14 -116 -3 -91 4 -111 65 -169 29
-27 34 -39 34 -76 0 -36 6 -49 32 -75 18 -17 50 -38 71 -47 32 -13 37 -19 37
-49 0 -46 43 -83 108 -91 26 -3 54 -7 62 -8 8 -1 20 -13 27 -27 11 -23 20 -26
105 -33 51 -4 125 -9 164 -10 l70 -3 60 -59 c32 -33 95 -91 139 -130 123 -106
204 -186 236 -232 26 -38 35 -43 68 -43 34 0 42 5 83 59 26 32 115 119 200
193 84 74 168 152 187 174 34 38 36 39 110 41 42 1 118 5 169 10 85 7 94 10
105 33 10 20 22 26 64 31 29 4 68 17 87 29 31 19 36 27 36 61 0 37 2 39 50 60
65 28 100 74 100 131 0 38 5 48 31 67 56 41 88 157 59 212 -8 14 -6 28 10 59
17 34 20 56 18 133 l-3 92 -37 3 c-35 3 -37 5 -28 28 6 14 10 60 10 103 0 99
-25 144 -82 149 -33 3 -39 -1 -69 -44 -68 -99 -184 -227 -277 -305 -104 -87
-310 -229 -333 -229 -8 0 -24 7 -36 15 -12 8 -50 22 -84 31 -115 29 -244 2
-324 -68 l-45 -40 -40 35 c-52 48 -84 63 -160 77 -81 15 -159 6 -229 -26 -29
-13 -58 -24 -63 -24 -15 0 -213 135 -289 196 -90 73 -235 225 -298 312 -47 64
-56 72 -85 72 -19 0 -40 -8 -50 -19z"/>
</g>
</svg>
